<svg xmlns="http://www.w3.org/2000/svg" version="1.1" xmlns:xlink="http://www.w3.org/1999/xlink" xmlns:svgjs="http://svgjs.dev/svgjs" width="1440" height="250" preserveAspectRatio="none" viewBox="0 0 1440 250"><g mask="url(&quot;#SvgjsMask1000&quot;)" fill="none"><rect width="1440" height="250" x="0" y="0" fill="#0e2a47"></rect><path d="M2 250L252 0L444 0L194 250z" fill="url(&quot;#SvgjsLinearGradient1001&quot;)"></path><path d="M245.60000000000002 250L495.6 0L624.6 0L374.6 250z" fill="url(&quot;#SvgjsLinearGradient1001&quot;)"></path><path d="M514.2 250L764.2 0L954.7 0L704.7 250z" fill="url(&quot;#SvgjsLinearGradient1001&quot;)"></path><path d="M730.8000000000001 250L980.8000000000001 0L1219.3000000000002 0L969.3000000000001 250z" fill="url(&quot;#SvgjsLinearGradient1001&quot;)"></path><path d="M1433 250L1183 0L850 0L1100 250z" fill="url(&quot;#SvgjsLinearGradient1002&quot;)"></path><path d="M1158.4 250L908.4000000000001 0L555.9000000000001 0L805.9000000000001 250z" fill="url(&quot;#SvgjsLinearGradient1002&quot;)"></path><path d="M916.8 250L666.8 0L491.29999999999995 0L741.3 250z" fill="url(&quot;#SvgjsLinearGradient1002&quot;)"></path><path d="M697.1999999999999 250L447.19999999999993 0L135.19999999999993 0L385.19999999999993 250z" fill="url(&quot;#SvgjsLinearGradient1002&quot;)"></path><path d="M1296.0474902836104 250L1440 106.04749028361039L1440 250z" fill="url(&quot;#SvgjsLinearGradient1001&quot;)"></path><path d="M0 250L143.9525097163896 250L 0 106.04749028361039z" fill="url(&quot;#SvgjsLinearGradient1002&quot;)"></path></g><defs><mask id="SvgjsMask1000"><rect width="1440" height="250" fill="#ffffff"></rect></mask><linearGradient x1="0%" y1="100%" x2="100%" y2="0%" id="SvgjsLinearGradient1001"><stop stop-color="rgba(15, 70, 185, 0.2)" offset="0"></stop><stop stop-opacity="0" stop-color="rgba(15, 70, 185, 0.2)" offset="0.66"></stop></linearGradient><linearGradient x1="100%" y1="100%" x2="0%" y2="0%" id="SvgjsLinearGradient1002"><stop stop-color="rgba(15, 70, 185, 0.2)" offset="0"></stop><stop stop-opacity="0" stop-color="rgba(15, 70, 185, 0.2)" offset="0.66"></stop></linearGradient></defs></svg>